<svg width="14" height="16" viewBox="0 0 14 16" fill="none" xmlns="http://www.w3.org/2000/svg">
<path d="M1.53136 8L1.5398 11.0946L4.16927 12.6419V14.4536L0.0009381 12.0089V7.09506L1.53136 8ZM1.53136 4.9054V6.70871L0 5.80284V3.99953L1.53136 3.09366L3.07021 3.99953L1.53136 4.9054ZM5.26738 3.99953L6.79873 3.09366L8.33759 3.99953L6.79873 4.9054L5.26738 3.99953Z" fill="#F0BA03"/>
<path d="M2.63791 10.4532V8.64143L4.16927 9.5473V11.3506L2.63791 10.4532ZM5.26738 13.2908L6.79873 14.1967L8.33759 13.2908V15.0941L6.79873 16L5.26738 15.0941V13.2908ZM10.5338 3.99953L12.0652 3.09366L13.604 3.99953V5.80284L12.0652 6.70871V4.9054L10.5338 3.99953ZM12.0652 11.0946L12.0736 8L13.605 7.09413V12.008L9.43664 14.4527V12.641L12.0652 11.0946Z" fill="#F0BA03"/>
<path d="M10.9671 10.4532L9.43571 11.3506V9.5473L10.9671 8.64142V10.4532Z" fill="#F0BA03"/>
<path d="M10.9671 5.54683L10.9755 7.35857L8.33853 8.90587V12.008L6.80717 12.9054L5.27582 12.008V8.90587L2.63885 7.35857V5.54683L4.17677 4.64096L6.7978 6.19576L9.43477 4.64096L10.9736 5.54683H10.9671ZM2.63791 2.45317L6.79873 0L10.9671 2.45317L9.43571 3.35904L6.79873 1.80424L4.16927 3.35904L2.63791 2.45317Z" fill="#F0BA03"/>
</svg>
