<svg width="12" height="16" viewBox="0 0 12 16" fill="none" xmlns="http://www.w3.org/2000/svg">
<path d="M9.43669 7.40578C10.2936 6.96998 10.8298 6.20249 10.7045 4.92387C10.5359 3.17652 9.02454 2.59059 7.11672 2.42372L7.11635 0H5.63815L5.63774 2.35998C5.24881 2.35998 4.85235 2.36761 4.45768 2.37552L4.45735 0.000321685L2.98049 0.000183829L2.98022 2.42331C2.66014 2.42984 2.34582 2.43604 2.03891 2.43604V2.42887L0 2.42804L0.000275987 4.00348C0.000275987 4.00348 1.09189 3.98299 1.07391 4.00288C1.67243 4.0033 1.86786 4.35026 1.92406 4.64975L1.92452 7.41088V11.2894C1.89817 11.4773 1.78727 11.7776 1.36878 11.7782C1.38782 11.7949 0.293487 11.778 0.293487 11.778L0.000275987 13.5397H1.9236C2.28198 13.5401 2.63411 13.5457 2.97957 13.5484L2.98086 15.9996L4.45735 16L4.45694 13.5745C4.86316 13.5828 5.25525 13.5864 5.63824 13.5859L5.63783 16H7.11598L7.11681 13.5529C9.60149 13.4105 11.341 12.7856 11.5572 10.4562C11.7316 8.58085 10.8474 7.74373 9.43669 7.40578ZM4.493 4.10982C5.32668 4.10982 7.94861 3.8448 7.94897 5.58333C7.94861 7.25008 5.32751 7.05537 4.493 7.05537V4.10982V4.10982ZM4.49235 11.7901L4.493 8.54239C5.49465 8.54211 8.63635 8.25466 8.63677 10.1655C8.63718 11.998 5.49465 11.7894 4.49235 11.7901Z" fill="#F7931A"/>
</svg>
