<svg width="16" height="16" viewBox="0 0 16 16" fill="none" xmlns="http://www.w3.org/2000/svg">
<path d="M16 8C16 12.4183 12.4183 16 8 16C3.58172 16 0 12.4183 0 8C0 3.58172 3.58172 0 8 0C12.4183 0 16 3.58172 16 8Z" fill="#D9D9D9"/>
<path d="M7.86506 3.02959C8.1048 2.90659 8.39746 3.19193 8.27008 3.42759C8.1961 3.61969 7.9156 3.67077 7.77233 3.52434C7.62053 3.38381 7.67003 3.10605 7.86506 3.02959ZM5.28637 3.30308C5.43201 3.24409 5.61638 3.37537 5.60153 3.53154C5.61698 3.70108 5.40627 3.82586 5.25783 3.74529C5.06115 3.67034 5.08364 3.35622 5.28637 3.30308ZM10.5678 3.75005C10.3402 3.72299 10.3042 3.37093 10.5233 3.30005C10.6933 3.2185 10.8492 3.37142 10.8741 3.52992C10.8384 3.66525 10.7233 3.78917 10.5678 3.75005ZM5.87312 4.38289C6.1166 4.23138 6.46404 4.45703 6.42658 4.73527C6.41393 5.01623 6.03465 5.179 5.82065 4.98906C5.61374 4.83987 5.64509 4.49761 5.87312 4.38289ZM9.59008 4.54366C9.69871 4.26823 10.1389 4.2599 10.2625 4.52802C10.3847 4.73668 10.2344 4.99507 10.0167 5.06601C9.72824 5.11899 9.45429 4.81222 9.59008 4.54366ZM7.55453 5.05037C7.55216 4.81363 7.77134 4.63722 8.00003 4.6211C8.15172 4.65102 8.31705 4.7146 8.38211 4.8652C8.50339 5.07294 8.3957 5.35898 8.17658 5.45432C8.07637 5.50957 7.9579 5.48885 7.84878 5.48241C7.68196 5.40183 7.54149 5.24383 7.55453 5.05037ZM3.71964 5.39534C3.94206 5.26082 4.24214 5.50633 4.15794 5.74404C4.11157 5.94967 3.83063 6.03333 3.67003 5.90205C3.49859 5.77905 3.52576 5.48333 3.71964 5.39534ZM11.9545 5.39491C12.1432 5.25075 12.4547 5.41612 12.4322 5.65054C12.4448 5.86428 12.1756 6.02548 11.9883 5.91542C11.7819 5.82418 11.7609 5.5119 11.9545 5.39491ZM8.63297 5.8205C8.94438 5.71044 9.31426 5.84215 9.49174 6.11531C9.72588 6.44924 9.6013 6.95779 9.23797 7.1494C8.8615 7.37602 8.31177 7.18392 8.17273 6.77029C8.01488 6.4 8.24483 5.93657 8.63297 5.8205ZM6.80586 5.85692C7.15099 5.69664 7.61547 5.83111 7.78217 6.17846C7.97836 6.51655 7.82667 6.98733 7.47593 7.1619C7.12476 7.35811 6.62931 7.20936 6.45936 6.84637C6.26879 6.49534 6.43802 6.01856 6.80586 5.85692ZM4.97639 6.47229C5.00263 6.25351 5.2124 6.11114 5.42404 6.09642C5.65207 6.12348 5.83423 6.29772 5.85904 6.52478C5.84408 6.74956 5.66753 6.96926 5.42542 6.96791C5.15905 6.99047 4.92552 6.72976 4.97639 6.47229ZM10.3801 6.14399C10.6535 5.98739 11.0332 6.21536 11.0211 6.52445C11.0398 6.85194 10.6196 7.08273 10.3473 6.89063C10.0644 6.73068 10.0865 6.28019 10.3801 6.14399ZM6.06232 7.29821C6.38214 7.21163 6.74784 7.35995 6.9047 7.64918C7.07652 7.94031 7.00628 8.34475 6.73942 8.55828C6.39716 8.87148 5.76592 8.74572 5.58376 8.31829C5.37443 7.92646 5.6287 7.40135 6.06232 7.29821ZM9.52782 7.29659C9.83874 7.20909 10.204 7.327 10.3711 7.60568C10.5921 7.9244 10.4866 8.39978 10.1576 8.60524C9.813 8.84383 9.27917 8.71856 9.08953 8.3455C8.85963 7.95963 9.09096 7.41428 9.52782 7.29659ZM4.00526 7.66022C4.28152 7.55741 4.58776 7.85736 4.47584 8.12684C4.40747 8.37234 4.0558 8.46309 3.87414 8.28209C3.66156 8.11212 3.74026 7.73392 4.00526 7.66022ZM11.4935 8.05129C11.4856 7.82608 11.653 7.62662 11.8878 7.61417C12.077 7.64366 12.2609 7.79383 12.246 7.99648C12.2633 8.26412 11.9355 8.44605 11.7037 8.32029C11.5951 8.26596 11.5394 8.15633 11.4935 8.05129ZM2.64686 7.79242C2.81307 7.72105 3.01866 7.86277 2.98071 8.04437C2.9718 8.25 2.66325 8.32906 2.5499 8.15725C2.44974 8.03793 2.50969 7.85395 2.64686 7.79242ZM13.1268 7.78831C13.2438 7.70633 13.4316 7.76526 13.4779 7.89978C13.5566 8.0467 13.4124 8.24799 13.2443 8.22316C13.0083 8.24431 12.932 7.89053 13.1268 7.78831ZM6.96509 8.77538C7.40245 8.66347 7.87259 9.02229 7.87534 9.46537C7.90389 9.91309 7.44084 10.3101 6.99314 10.2067C6.64708 10.1519 6.37554 9.82391 6.38676 9.47987C6.38583 9.15081 6.63822 8.84496 6.96509 8.77538ZM8.69715 8.77446C9.14106 8.65238 9.62523 9.01764 9.61819 9.47094C9.64162 9.91039 9.19304 10.294 8.75469 10.2069C8.34218 10.1544 8.03781 9.70849 8.15298 9.31466C8.21112 9.05221 8.43398 8.83879 8.69715 8.77446ZM5.3576 9.04718C5.66478 8.99561 5.95276 9.33279 5.82818 9.61975C5.73732 9.92554 5.285 10.0085 5.08502 9.75871C4.85044 9.51883 5.02556 9.0803 5.3576 9.04718ZM10.4371 9.06066C10.711 8.94778 11.0473 9.18089 11.0262 9.47337C11.0372 9.79534 10.6221 10.0174 10.3543 9.82943C10.0509 9.66071 10.1061 9.16417 10.4371 9.06066ZM11.8569 10.4617C11.7497 10.265 11.9445 10.0043 12.1665 10.0407C12.277 10.0389 12.3542 10.1246 12.425 10.1964C12.4395 10.313 12.4638 10.4521 12.3655 10.5419C12.232 10.7082 11.9295 10.6607 11.8569 10.4617ZM3.7187 10.0955C3.92617 9.95963 4.22471 10.1623 4.17807 10.4009C4.15326 10.612 3.88305 10.7326 3.70506 10.6128C3.51405 10.5041 3.52109 10.1946 3.7187 10.0955ZM7.81732 10.5373C8.08891 10.4194 8.43491 10.652 8.40917 10.9463C8.4293 11.2715 8.00135 11.4968 7.73581 11.3015C7.44084 11.1338 7.49001 10.6404 7.81732 10.5373ZM5.91899 10.973C6.15032 10.8532 6.46074 11.0601 6.43967 11.3148C6.44671 11.5239 6.23925 11.7022 6.02948 11.6713C5.85574 11.6676 5.74244 11.5143 5.68672 11.3686C5.68958 11.2098 5.75602 11.0329 5.91899 10.973ZM9.76427 10.9767C10.0021 10.832 10.3402 11.0398 10.3177 11.3122C10.3238 11.5969 9.94175 11.7792 9.72027 11.5922C9.50582 11.4456 9.532 11.0932 9.76427 10.9767ZM10.433 12.6031C10.3271 12.4456 10.4517 12.2558 10.6235 12.2199C10.7617 12.2476 10.9078 12.3498 10.8787 12.5074C10.8586 12.7206 10.5416 12.786 10.433 12.6031ZM5.12484 12.4663C5.16697 12.3415 5.26905 12.2174 5.41843 12.2499C5.63618 12.2651 5.7008 12.588 5.51023 12.6875C5.33884 12.8012 5.14002 12.6455 5.12484 12.4663ZM7.6857 12.6096C7.72739 12.4249 7.97038 12.3351 8.13054 12.4332C8.23636 12.4779 8.26727 12.5944 8.29444 12.6934C8.27992 12.745 8.26694 12.7966 8.25418 12.8482C8.18862 12.9246 8.10436 13.0011 7.99524 12.9983C7.79246 13.0217 7.60953 12.7962 7.6857 12.6096Z" fill="#0133AE"/>
</svg>
