<svg width="16" height="16" viewBox="0 0 16 16" fill="none" xmlns="http://www.w3.org/2000/svg">
<path d="M8 16C3.58163 16 0 12.4184 0 8C0 3.58163 3.58163 0 8 0C12.4184 0 16 3.58163 16 8C16 12.4184 12.4184 16 8 16ZM7.98587 2.61767C4.99788 2.61484 2.57527 5.03463 2.57527 8.02261V8.02827C2.57527 8.63039 2.67703 9.20141 2.85512 9.74417H4.46643V5.19859L7.98587 8.71802L11.5053 5.19859V9.747H13.1194C13.3032 9.19293 13.3965 8.61343 13.3993 8.03109C13.3993 5.03746 10.9767 2.61767 7.98587 2.61767V2.61767ZM7.18021 9.50954L5.63958 7.9689V10.8297H3.36678C4.31943 12.3845 6.03534 13.4247 7.98587 13.4247C9.9364 13.4247 11.6664 12.3845 12.6049 10.8297H10.3322V7.9689L8.80848 9.50954L8 10.318L7.18021 9.50954Z" fill="#EA6521"/>
</svg>
