<svg width="10" height="16" viewBox="0 0 10 16" fill="none" xmlns="http://www.w3.org/2000/svg">
<path d="M3.32224 2.13568V0H5.99552V2.11072H9.24288C9.13024 3.13472 9.49248 4.1216 8.71808 5.07072C7.19488 6.94464 5.78304 8.91776 4.32128 10.8538C4.30912 10.8794 4.30912 10.9165 4.29696 11.0163H9.40544V13.9264H6.01984V16H3.36V13.9642H0C0.06272 12.9146 -0.19968 11.9533 0.58688 11.0163C2.14848 9.14304 3.57248 7.15712 5.0464 5.22112C5.07136 5.18336 5.08352 5.13344 5.12128 5.0336H0.42496V2.16064C1.37408 2.13568 2.31104 2.13568 3.32224 2.13568V2.13568Z" fill="#EBB242"/>
</svg>
